<svg xmlns="http://www.w3.org/2000/svg" viewBox="0 0 320 320" role="img" aria-label="Synthetic applicant headshot illustration">
  <defs>
    <linearGradient id="bg" x1="0" y1="0" x2="1" y2="1">
      <stop offset="0%" stop-color="#eaf1ff"/>
      <stop offset="100%" stop-color="#d3e0ff"/>
    </linearGradient>
  </defs>
  <rect width="320" height="320" fill="url(#bg)"/>
  <ellipse cx="160" cy="286" rx="118" ry="76" fill="#35508e"/>
  <ellipse cx="160" cy="160" rx="60" ry="74" fill="#efc49f"/>
  <path d="M102 154c0-56 28-90 58-90 42 0 64 28 64 88 0 6-1 12-2 18-12-12-22-18-42-18-20 0-33 7-78 2z" fill="#1a2438"/>
  <circle cx="140" cy="156" r="5" fill="#1f2330"/>
  <circle cx="182" cy="156" r="5" fill="#1f2330"/>
  <path d="M146 190c8 6 20 6 28 0" stroke="#9f5f57" stroke-width="5" fill="none" stroke-linecap="round"/>
  <rect x="108" y="214" width="104" height="16" rx="8" fill="#eeb58d"/>
  <rect x="108" y="236" width="104" height="52" rx="20" fill="#f7fbff" opacity="0.8"/>
</svg>
