<svg xmlns="http://www.w3.org/2000/svg" viewBox="0 0 320 320" role="img" aria-label="Synthetic applicant headshot illustration">
  <defs>
    <linearGradient id="bg" x1="0" y1="0" x2="1" y2="1">
      <stop offset="0%" stop-color="#ffeef3"/>
      <stop offset="100%" stop-color="#f5d1de"/>
    </linearGradient>
  </defs>
  <rect width="320" height="320" fill="url(#bg)"/>
  <ellipse cx="160" cy="286" rx="118" ry="76" fill="#7a3158"/>
  <ellipse cx="160" cy="160" rx="60" ry="74" fill="#e8b58f"/>
  <path d="M98 156c0-56 30-92 62-92 36 0 62 30 62 90v12c-14-16-28-24-50-24-22 0-38 8-74 14z" fill="#3a2130"/>
  <circle cx="140" cy="156" r="5" fill="#2a1a28"/>
  <circle cx="182" cy="156" r="5" fill="#2a1a28"/>
  <path d="M145 190c8 7 22 7 30 0" stroke="#9a5050" stroke-width="5" fill="none" stroke-linecap="round"/>
  <rect x="108" y="214" width="104" height="16" rx="8" fill="#dfaa83"/>
  <rect x="110" y="236" width="100" height="52" rx="20" fill="#fff7fb" opacity="0.78"/>
</svg>
